<svg width="46" height="46" viewBox="0 0 46 46" fill="none" xmlns="http://www.w3.org/2000/svg">
<path fill-rule="evenodd" clip-rule="evenodd" d="M0 23C0 10.2975 10.2975 0 23 0C35.7025 0 46 10.2975 46 23C46 35.7025 35.7025 46 23 46C10.2975 46 0 35.7025 0 23ZM23 11.5C29.325 11.5 34.5 16.675 34.5 23C34.5 28.75 30.3313 33.6375 24.5813 34.5V26.3062H27.3125L27.8875 23H24.725V20.8438C24.725 19.9812 25.1562 19.1187 26.5938 19.1187H28.0312V16.2437C28.0312 16.2437 26.7375 15.9563 25.4438 15.9563C22.8563 15.9563 21.1313 17.5375 21.1313 20.4125V23H18.2563V26.3062H21.1313V34.3563C15.6687 33.4937 11.5 28.75 11.5 23C11.5 16.675 16.675 11.5 23 11.5Z" fill="white"/>
</svg>
