<svg width="96" height="80" viewBox="0 0 152 120" fill="none" xmlns="http://www.w3.org/2000/svg">
<path d="M87.1286 32.0119C97.9608 41.9888 102.959 54.3598 102.737 69.0492C102.689 72.2483 101.603 73.0303 98.5379 73.0126C75.7952 72.8936 53.0524 72.9443 30.3072 72.9544C27.6497 72.9544 25.0328 72.6001 22.3247 72.7823C17.0908 73.1315 7.27088 64.0557 6.67358 58.8522C5.87129 51.8618 10.6015 48.0477 17.2376 50.4319C19.1737 51.1279 21.0238 52.1149 22.8233 53.1323C24.6025 54.1396 26.2679 55.3519 28.1762 56.6022C28.3306 55.8455 28.6064 55.0989 28.4824 55.0255C23.4864 52.0795 21.1276 46.7646 17.3565 42.8518C13.383 38.7315 8.83752 34.1581 2.2116 33.8139C1.30554 33.7658 -0.061152 33.7228 0.00212069 32.5181C0.128666 30.1644 1.91802 28.4864 3.15816 26.6565C3.69977 25.8593 4.93739 26.6186 5.57011 27.4183C9.90555 32.9053 16.21 33.8063 22.5044 34.5757C26.7943 35.0996 31.2664 35.1072 35.0526 37.3192C37.5633 38.7846 38.9325 38.1013 40.7725 36.4081C48.6892 29.1267 57.9017 24.7862 68.901 24.647C68.1822 22.5134 66.7826 20.3141 69.1389 18.5728C70.3411 17.6845 72.0013 17.8743 73.2364 18.7601C75.5193 20.3925 74.1273 22.4577 73.5502 24.4673C87.9131 25.2924 98.9454 32.1283 108.011 43.5174C109.884 39.6882 111.43 36.5473 108.75 32.7231C107.257 30.5896 107.168 27.9397 107.953 25.3151C110.253 17.6237 113.678 10.441 117.715 3.4886C116.988 10.0563 114.035 16.0318 112.913 22.5413C116.406 16.8391 117.634 10.0462 121.984 4.70091C120.083 11.0256 118.183 17.3529 116.285 23.6776C119.944 18.4539 121.017 12.119 124.783 5.7158C124.148 13.1769 120.334 18.7626 120.405 25.2746C123.963 20.018 124.773 13.5236 128.428 8.32264C126.94 16.7177 125.13 25.0114 120.838 32.5054C120.162 33.6848 118.881 34.6466 117.679 35.378C110.6 39.6856 109.092 44.1603 112.253 51.8289C112.979 53.5904 113.645 55.3747 114.505 57.5715C117.105 54.0283 118.494 50.857 118.608 46.5596C118.803 39.1541 123.095 32.9484 126.795 26.8109C132.09 18.0287 138.043 9.66149 145.744 2.75717C147.179 1.46894 149.017 -1.0569 150.991 0.481888C153.231 2.23074 151.204 4.52881 150.075 6.41686C138.903 25.0924 127.112 43.4137 117.707 63.099C116.669 65.2731 115.513 67.3737 115.619 69.892C115.728 72.4204 114.404 73.0025 112.033 73.0227C109.203 73.043 109.557 71.3245 109.476 69.5579C108.725 53.0437 101.39 40.4576 87.1286 32.0119Z" fill="black"/>
<path d="M81.3581 83.2855C83.7372 83.5462 85.567 81.8581 87.7436 81.6556C88.9964 81.5392 90.6061 81.2026 90.9781 82.8123C91.2995 84.1992 89.7 84.432 88.761 84.88C80.9734 88.6156 73.1884 92.3234 66.2334 97.5649C61.4677 101.156 57.0867 105.137 53.6523 109.979C51.825 112.553 50.3216 113.439 47.5224 111.515C45.7027 110.265 43.5742 109.46 41.142 108.233C48.0387 102.191 44.4499 92.8296 48.9043 85.8898C50.4077 83.5488 46.0849 79.231 42.7593 79.1981C36.3611 79.1349 29.9605 79.2083 23.5624 79.15C22.0565 79.1374 19.7609 79.6157 19.6572 77.4822C19.5281 74.8349 22.059 75.4549 23.6459 75.4524C55.3227 75.4094 86.9995 75.4144 118.676 75.4347C120.218 75.4347 122.506 75.0677 122.597 77.1177C122.711 79.6562 120.238 79.1754 118.583 79.2007C110.104 79.3297 101.623 79.5626 93.1496 79.3981C88.6876 79.312 84.7065 79.9599 81.3607 83.2906L81.3581 83.2855ZM51.3745 79.3778C53.6042 82.4731 54.404 85.3153 54.5735 88.3803C54.6874 90.4556 56.1301 91.3971 57.965 91.8552C60.301 92.4424 60.4225 90.5037 61.0754 89.1269C64.2829 82.3592 62.1055 79.0437 54.5432 79.1804C53.7611 79.1956 52.9816 79.2741 51.3745 79.3778ZM81.5859 79.4386C77.8123 78.1554 76.9189 81.0938 75.5674 83.3362C75.1903 83.9613 75.2435 84.5839 75.8762 84.961C76.3925 85.2698 77.3922 85.5431 77.3897 84.7332C77.3795 81.8126 80.7937 81.681 81.5859 79.4386Z" fill="black"/>
<path d="M28.7355 118.27C31.5726 115.555 34.4528 112.879 37.2267 110.103C38.3934 108.936 39.4792 109.237 40.6839 109.837C42.9693 110.974 45.2851 112.054 47.5351 113.262C48.7423 113.907 51.0024 114.132 50.7114 115.641C50.3722 117.41 48.6132 119.204 46.7151 119.29C40.9117 119.553 35.0881 119.386 29.2721 119.386C29.0924 119.014 28.9127 118.642 28.733 118.27H28.7355Z" fill="black"/>
</svg>
