<svg width="46" height="46" viewBox="0 0 46 46" fill="none" xmlns="http://www.w3.org/2000/svg">
<path d="M23 27.025C20.8438 27.025 18.975 25.3 18.975 23C18.975 20.8437 20.7 18.975 23 18.975C25.1562 18.975 27.025 20.7 27.025 23C27.025 25.1562 25.1562 27.025 23 27.025Z" fill="white"/>
<path fill-rule="evenodd" clip-rule="evenodd" d="M27.8875 13.225H18.1125C16.9625 13.3687 16.3875 13.5125 15.9563 13.6562C15.3813 13.8 14.95 14.0875 14.5188 14.5187C14.1775 14.86 14.0163 15.2012 13.8214 15.6137C13.77 15.7224 13.7162 15.8363 13.6562 15.9562C13.634 16.023 13.6083 16.0931 13.5808 16.1683C13.4304 16.5792 13.225 17.1404 13.225 18.1125V27.8875C13.3688 29.0375 13.5125 29.6125 13.6562 30.0437C13.8 30.6187 14.0875 31.05 14.5188 31.4812C14.86 31.8225 15.2012 31.9837 15.6137 32.1786C15.7225 32.23 15.8362 32.2837 15.9563 32.3437C16.023 32.366 16.0931 32.3917 16.1683 32.4192C16.5792 32.5696 17.1404 32.775 18.1125 32.775H27.8875C29.0375 32.6312 29.6125 32.4875 30.0437 32.3437C30.6187 32.2 31.05 31.9125 31.4812 31.4812C31.8225 31.14 31.9837 30.7988 32.1786 30.3863C32.23 30.2775 32.2838 30.1637 32.3438 30.0437C32.366 29.977 32.3917 29.9069 32.4192 29.8317C32.5696 29.4208 32.775 28.8596 32.775 27.8875V18.1125C32.6312 16.9625 32.4875 16.3875 32.3438 15.9562C32.2 15.3812 31.9125 14.95 31.4812 14.5187C31.14 14.1775 30.7988 14.0163 30.3863 13.8214C30.2777 13.7701 30.1636 13.7161 30.0437 13.6562C29.977 13.634 29.9069 13.6083 29.8317 13.5808C29.4208 13.4304 28.8596 13.225 27.8875 13.225ZM23 16.8187C19.55 16.8187 16.8188 19.55 16.8188 23C16.8188 26.45 19.55 29.1812 23 29.1812C26.45 29.1812 29.1812 26.45 29.1812 23C29.1812 19.55 26.45 16.8187 23 16.8187ZM30.7625 16.675C30.7625 17.4689 30.1189 18.1125 29.325 18.1125C28.5311 18.1125 27.8875 17.4689 27.8875 16.675C27.8875 15.8811 28.5311 15.2375 29.325 15.2375C30.1189 15.2375 30.7625 15.8811 30.7625 16.675Z" fill="white"/>
<path fill-rule="evenodd" clip-rule="evenodd" d="M0 23C0 10.2975 10.2975 0 23 0C35.7025 0 46 10.2975 46 23C46 35.7025 35.7025 46 23 46C10.2975 46 0 35.7025 0 23ZM18.1125 11.0687H27.8875C29.1812 11.2125 30.0437 11.3562 30.7625 11.6437C31.625 12.075 32.2 12.3625 32.9188 13.0812C33.6375 13.8 34.0688 14.5187 34.3563 15.2375C34.6437 15.9562 34.9312 16.8187 34.9312 18.1125V27.8875C34.7875 29.1812 34.6437 30.0437 34.3563 30.7625C33.925 31.625 33.6375 32.2 32.9188 32.9187C32.2 33.6375 31.4812 34.0687 30.7625 34.3562C30.0437 34.6437 29.1812 34.9312 27.8875 34.9312H18.1125C16.8188 34.7875 15.9563 34.6437 15.2375 34.3562C14.375 33.925 13.8 33.6375 13.0813 32.9187C12.3625 32.2 11.9313 31.4812 11.6438 30.7625C11.3563 30.0437 11.0687 29.1812 11.0687 27.8875V18.1125C11.2125 16.8187 11.3563 15.9562 11.6438 15.2375C12.075 14.375 12.3625 13.8 13.0813 13.0812C13.8 12.3625 14.5188 11.9312 15.2375 11.6437C15.9563 11.3562 16.8188 11.0687 18.1125 11.0687Z" fill="white"/>
</svg>
