<svg width="46" height="46" viewBox="0 0 46 46" fill="none" xmlns="http://www.w3.org/2000/svg">
<path fill-rule="evenodd" clip-rule="evenodd" d="M0 23C0 10.2975 10.2975 0 23 0C35.7025 0 46 10.2975 46 23C46 35.7025 35.7025 46 23 46C10.2975 46 0 35.7025 0 23ZM11.5 23C11.5 16.675 16.675 11.5 23 11.5C29.325 11.5 34.5 16.675 34.3562 22.425C34.3562 28.75 29.1812 33.925 22.8562 33.925C21.7062 33.925 20.5563 33.7812 19.55 33.4938C19.9813 32.775 20.4125 31.9125 20.7 31.05C20.8437 30.475 21.5625 27.8875 21.5625 27.8875C21.9937 28.6063 23.1437 29.325 24.4375 29.325C28.175 29.325 30.6187 25.875 30.6187 21.4188C30.6187 17.9688 27.7437 14.8063 23.2875 14.8063C17.825 14.8063 15.0938 18.6875 15.0938 21.9938C15.0938 24.0062 15.8125 25.7313 17.3938 26.45C17.6813 26.5938 17.825 26.45 17.9688 26.1625C18.1125 26.0187 18.2562 25.4437 18.2562 25.3C18.3579 25.0967 18.3158 25.0372 18.2316 24.9181C18.1967 24.8687 18.1546 24.8092 18.1125 24.725C17.6813 24.15 17.3938 23.4313 17.3938 22.425C17.3938 19.55 19.55 16.9625 23 16.9625C26.0187 16.9625 27.7438 18.8312 27.7438 21.4188C27.7438 24.8688 26.3063 27.6 24.15 27.6C22.8563 27.6 21.9937 26.5938 22.2812 25.4437C22.4013 24.8437 22.5964 24.2186 22.7831 23.6207C23.0436 22.7863 23.2875 22.005 23.2875 21.4188C23.2875 20.4125 22.7125 19.6937 21.7063 19.6937C20.5563 19.6937 19.55 20.9875 19.55 22.7125C19.55 23.8625 19.9812 24.5812 19.9812 24.5812C19.9812 24.5812 18.8312 29.9 18.5437 30.9062C18.4 31.7687 18.4 32.6311 18.4 33.4936C14.375 31.7686 11.5 27.7438 11.5 23Z" fill="white"/>
</svg>
