<svg width="25" height="25" viewBox="0 0 50 50" fill="none" xmlns="http://www.w3.org/2000/svg">
<path d="M25 25C21.6083 25 18.7048 23.7924 16.2896 21.3771C13.8743 18.9618 12.6666 16.0583 12.6666 12.6667C12.6666 9.27501 13.8743 6.37154 16.2896 3.95626C18.7048 1.54098 21.6083 0.333344 25 0.333344C28.3916 0.333344 31.2951 1.54098 33.7104 3.95626C36.1257 6.37154 37.3333 9.27501 37.3333 12.6667C37.3333 16.0583 36.1257 18.9618 33.7104 21.3771C31.2951 23.7924 28.3916 25 25 25ZM0.333313 49.6667V41.0333C0.333313 39.2861 0.78348 37.6797 1.68381 36.2141C2.58415 34.7485 3.77842 33.6313 5.26665 32.8625C8.45276 31.2695 11.6903 30.0741 14.9791 29.2766C18.268 28.479 21.6083 28.0813 25 28.0833C28.3916 28.0833 31.7319 28.4821 35.0208 29.2797C38.3097 30.0772 41.5472 31.2715 44.7333 32.8625C46.2236 33.6333 47.4189 34.7516 48.3192 36.2172C49.2196 37.6828 49.6687 39.2882 49.6666 41.0333V49.6667H0.333313Z" fill="black"/>
</svg>
