<svg width="46" height="46" viewBox="0 0 46 46" fill="none" xmlns="http://www.w3.org/2000/svg">
<path d="M26.7375 23L20.7 19.55V26.45L26.7375 23Z" fill="white"/>
<path fill-rule="evenodd" clip-rule="evenodd" d="M0 23C0 10.2975 10.2975 0 23 0C35.7025 0 46 10.2975 46 23C46 35.7025 35.7025 46 23 46C10.2975 46 0 35.7025 0 23ZM31.9125 15.3813C32.9188 15.6688 33.6375 16.3875 33.925 17.3938C34.5 19.2625 34.5 23 34.5 23C34.5 23 34.5 26.7375 34.0688 28.6063C33.7813 29.6125 33.0625 30.3313 32.0562 30.6188C30.1875 31.05 23 31.05 23 31.05C23 31.05 15.6687 31.05 13.9437 30.6188C12.9375 30.3313 12.2188 29.6125 11.9313 28.6063C11.5 26.7375 11.5 23 11.5 23C11.5 23 11.5 19.2625 11.7875 17.3938C12.075 16.3875 12.7938 15.6688 13.8 15.3813C15.6688 14.95 22.8562 14.95 22.8562 14.95C22.8562 14.95 30.1875 14.95 31.9125 15.3813Z" fill="white"/>
</svg>
